<svg width="267" height="244" viewBox="0 0 267 244" fill="none" xmlns="http://www.w3.org/2000/svg">
<rect width="267" height="244" fill="#E5E5E5"/>
<g filter="url(#filter0_d)">
<path d="M22.6562 21.75V16.75H17.6562V21.75H22.6562ZM201.799 23.4194L201.142 28.376L201.17 28.3797L201.198 28.3831L201.799 23.4194ZM235.316 36.1328L231.635 39.5159L231.659 39.5426L231.684 39.5688L235.316 36.1328ZM244.177 61.688L239.18 61.8492L239.181 61.8894L239.183 61.9296L244.177 61.688ZM244.049 97.7734L239.058 97.471L239.056 97.5087L239.054 97.5464L244.049 97.7734ZM241.095 113.184L236.406 111.447L236.397 111.472L236.389 111.496L241.095 113.184ZM233.133 125.255L236.582 128.876L236.584 128.874L233.133 125.255ZM217.595 133.859L215.978 129.128L215.968 129.131L215.959 129.134L217.595 133.859ZM192.04 139.124L191.465 134.157L191.46 134.158L192.04 139.124ZM47.3125 140.922V135.922H42.3125V140.922H47.3125ZM47.3125 219V224H52.3125V219H47.3125ZM22.6562 219H17.6562V224H22.6562V219ZM47.3125 120.375H42.3125V125.375H47.3125V120.375ZM181.638 119.861L181.867 124.856L181.894 124.855L181.921 124.853L181.638 119.861ZM217.338 105.864L212.723 103.941L212.7 103.996L212.678 104.052L217.338 105.864ZM219.521 94.8198L214.53 94.5262L214.527 94.5731L214.525 94.62L219.521 94.8198ZM219.521 64.8984L214.526 65.111L214.528 65.164L214.531 65.2169L219.521 64.8984ZM217.338 54.7534L212.757 56.7575L212.783 56.8169L212.811 56.8756L217.338 54.7534ZM200.258 44.48L199.311 49.3894L199.353 49.3974L199.394 49.4048L200.258 44.48ZM181.638 42.6821L181.465 47.6792L181.467 47.6792L181.638 42.6821ZM47.3125 42.2969V37.2969H42.3125V42.2969H47.3125ZM22.6562 26.75H170.851V16.75H22.6562V26.75ZM170.851 26.75C182.961 26.75 193.042 27.3016 201.142 28.376L202.457 18.4629C193.776 17.3114 183.225 16.75 170.851 16.75V26.75ZM201.198 28.3831C209.426 29.3805 215.957 30.8925 220.912 32.8282L224.551 23.5136C218.548 21.1687 211.124 19.5131 202.401 18.4558L201.198 28.3831ZM220.912 32.8282C225.928 34.7876 229.393 37.0763 231.635 39.5159L238.998 32.7497C235.418 28.854 230.493 25.8348 224.551 23.5136L220.912 32.8282ZM231.684 39.5688C234.149 42.1748 235.955 45.2398 237.104 48.8291L246.628 45.7813C245.037 40.8093 242.476 36.4261 238.949 32.6968L231.684 39.5688ZM237.104 48.8291C238.309 52.5971 239.021 56.9227 239.18 61.8492L249.175 61.5268C248.991 55.8374 248.162 50.5744 246.628 45.7813L237.104 48.8291ZM239.183 61.9296C239.435 67.1426 239.562 72.925 239.562 79.2812H249.562C249.562 72.7957 249.433 66.8492 249.171 61.4463L239.183 61.9296ZM239.562 79.2812C239.562 85.8754 239.393 91.9372 239.058 97.471L249.04 98.0759C249.389 92.3089 249.562 86.0425 249.562 79.2812H239.562ZM239.054 97.5464C238.817 102.755 237.915 107.374 236.406 111.447L245.784 114.92C247.7 109.747 248.767 104.092 249.044 98.0005L239.054 97.5464ZM236.389 111.496C235.039 115.26 232.833 118.633 229.683 121.636L236.584 128.874C240.796 124.857 243.898 120.182 245.802 114.871L236.389 111.496ZM229.685 121.634C226.79 124.392 222.335 126.955 215.978 129.128L219.212 138.59C226.381 136.14 232.285 132.967 236.582 128.876L229.685 121.634ZM215.959 129.134C209.746 131.285 201.616 132.983 191.465 134.157L192.614 144.091C203.181 142.868 212.088 141.056 219.23 138.584L215.959 129.134ZM191.46 134.158C181.444 135.326 168.981 135.922 154.028 135.922V145.922C169.21 145.922 182.088 145.319 192.619 144.09L191.46 134.158ZM154.028 135.922H47.3125V145.922H154.028V135.922ZM42.3125 140.922V219H52.3125V140.922H42.3125ZM47.3125 214H22.6562V224H47.3125V214ZM27.6562 219V21.75H17.6562V219H27.6562ZM47.3125 125.375H154.028V115.375H47.3125V125.375ZM154.028 125.375C165.031 125.375 174.316 125.203 181.867 124.856L181.408 114.867C174.063 115.204 164.941 115.375 154.028 115.375V125.375ZM181.921 124.853C189.593 124.417 196.072 123.669 201.288 122.571L199.228 112.785C194.685 113.742 188.75 114.449 181.354 114.869L181.921 124.853ZM201.288 122.571C206.517 121.47 211.023 119.823 214.453 117.39L208.665 109.234C206.787 110.567 203.759 111.832 199.228 112.785L201.288 122.571ZM214.453 117.39C217.918 114.93 220.451 111.654 221.998 107.676L212.678 104.052C211.828 106.238 210.508 107.927 208.665 109.234L214.453 117.39ZM221.953 107.787C223.52 104.027 224.328 99.733 224.517 95.0197L214.525 94.62C214.371 98.4679 213.724 101.536 212.723 103.941L221.953 107.787ZM224.512 95.1134C224.777 90.6213 224.906 85.339 224.906 79.2812H214.906C214.906 85.2092 214.779 90.2859 214.53 94.5262L224.512 95.1134ZM224.906 79.2812C224.906 73.6469 224.776 68.7409 224.511 64.5799L214.531 65.2169C214.779 69.1035 214.906 73.786 214.906 79.2812H224.906ZM224.516 64.6859C224.326 60.208 223.507 56.1329 221.865 52.6312L212.811 56.8756C213.738 58.8531 214.374 61.5414 214.526 65.111L224.516 64.6859ZM221.919 52.7493C220.293 49.0334 217.659 46.0786 214.172 43.9411L208.946 52.4671C210.767 53.5829 211.986 54.9943 212.757 56.7575L221.919 52.7493ZM214.172 43.9411C210.759 41.8495 206.298 40.4633 201.122 39.5552L199.394 49.4048C203.978 50.2089 207.051 51.3055 208.946 52.4671L214.172 43.9411ZM201.206 39.5706C195.975 38.5611 189.484 37.9467 181.808 37.685L181.467 47.6792C188.859 47.9312 194.782 48.5154 199.311 49.3894L201.206 39.5706ZM181.81 37.6851C174.285 37.4256 165.02 37.2969 154.028 37.2969V47.2969C164.953 47.2969 174.094 47.425 181.465 47.6792L181.81 37.6851ZM154.028 37.2969H47.3125V47.2969H154.028V37.2969ZM42.3125 42.2969V120.375H52.3125V42.2969H42.3125Z" fill="white"/>
</g>
<g filter="url(#filter1_d)">
<rect x="5" y="1" width="257" height="234" stroke="white" stroke-width="2"/>
</g>
<defs>
<filter id="filter0_d" x="13.6562" y="16.75" width="239.906" height="215.25" filterUnits="userSpaceOnUse" color-interpolation-filters="sRGB">
<feFlood flood-opacity="0" result="BackgroundImageFix"/>
<feColorMatrix in="SourceAlpha" type="matrix" values="0 0 0 0 0 0 0 0 0 0 0 0 0 0 0 0 0 0 127 0"/>
<feOffset dy="4"/>
<feGaussianBlur stdDeviation="2"/>
<feColorMatrix type="matrix" values="0 0 0 0 0 0 0 0 0 0 0 0 0 0 0 0 0 0 0.25 0"/>
<feBlend mode="normal" in2="BackgroundImageFix" result="effect1_dropShadow"/>
<feBlend mode="normal" in="SourceGraphic" in2="effect1_dropShadow" result="shape"/>
</filter>
<filter id="filter1_d" x="0" y="0" width="267" height="244" filterUnits="userSpaceOnUse" color-interpolation-filters="sRGB">
<feFlood flood-opacity="0" result="BackgroundImageFix"/>
<feColorMatrix in="SourceAlpha" type="matrix" values="0 0 0 0 0 0 0 0 0 0 0 0 0 0 0 0 0 0 127 0"/>
<feOffset dy="4"/>
<feGaussianBlur stdDeviation="2"/>
<feColorMatrix type="matrix" values="0 0 0 0 0 0 0 0 0 0 0 0 0 0 0 0 0 0 0.25 0"/>
<feBlend mode="normal" in2="BackgroundImageFix" result="effect1_dropShadow"/>
<feBlend mode="normal" in="SourceGraphic" in2="effect1_dropShadow" result="shape"/>
</filter>
</defs>
</svg>
